<group>
ampeg_attack=0.100000
ampeg_release=0.300000

<region>
sample=Tenor Saxophone/Staccato/BrettTenor_Staccato_Main_G#1_vl2_rr1.wav
pitch_keycenter=32
lokey=32.0
hikey=33.0
offset=87
tune=10
volume=1.836573

<region>
sample=Tenor Saxophone/Staccato/BrettTenor_Staccato_Main_A#1_vl2_rr5.wav
pitch_keycenter=34
lokey=34.0
hikey=35.0
tune=11
volume=-1.947120

<region>
sample=Tenor Saxophone/Staccato/BrettTenor_Staccato_Main_C2_vl2_rr1.wav
pitch_keycenter=36
lokey=36.0
hikey=37.0
tune=15
volume=0.236339

<region>
lovel=0
hivel=78
sample=Tenor Saxophone/Staccato/BrettTenor_Staccato_Main_D2_vl1_rr5.wav
pitch_keycenter=38
lokey=38.0
hikey=39.0
tune=6
volume=2.555118

<region>
lovel=78
hivel=128
sample=Tenor Saxophone/Staccato/BrettTenor_Staccato_Main_D2_vl2_rr4.wav
pitch_keycenter=38
lokey=38.0
hikey=39.0
tune=13
volume=-1.178327

<region>
lovel=0
hivel=78
sample=Tenor Saxophone/Staccato/BrettTenor_Staccato_Main_E2_vl1_rr2.wav
pitch_keycenter=40
lokey=40.0
hikey=41.0
tune=10
volume=1.049388

<region>
lovel=78
hivel=128
sample=Tenor Saxophone/Staccato/BrettTenor_Staccato_Main_E2_vl2_rr1.wav
pitch_keycenter=40
lokey=40.0
hikey=41.0
tune=15
volume=-2.405909

<region>
lovel=0
hivel=78
sample=Tenor Saxophone/Staccato/BrettTenor_Staccato_Main_F#2_vl1_rr4.wav
pitch_keycenter=42
lokey=42.0
hikey=43.0
offset=158
tune=10
volume=2.796892

<region>
lovel=78
hivel=128
sample=Tenor Saxophone/Staccato/BrettTenor_Staccato_Main_F#2_vl2_rr7.wav
pitch_keycenter=42
lokey=42.0
hikey=43.0
tune=6
volume=-1.247509

<region>
lovel=0
hivel=78
sample=Tenor Saxophone/Staccato/BrettTenor_Staccato_Main_G#2_vl1_rr1.wav
pitch_keycenter=44
lokey=44.0
hikey=44.0
tune=8
volume=3.225746

<region>
lovel=78
hivel=128
sample=Tenor Saxophone/Staccato/BrettTenor_Staccato_Main_G#2_vl2_rr1.wav
pitch_keycenter=44
lokey=44.0
hikey=44.0
tune=8
volume=-1.291932

<region>
lovel=0
hivel=78
sample=Tenor Saxophone/Staccato/BrettTenor_Staccato_Main_A2_vl1_rr1.wav
pitch_keycenter=45
lokey=45.0
hikey=46.0
tune=8
volume=0.487304

<region>
lovel=78
hivel=128
sample=Tenor Saxophone/Staccato/BrettTenor_Staccato_Main_A2_vl2_rr4.wav
pitch_keycenter=45
lokey=45.0
hikey=46.0
tune=11
volume=-2.076200

<region>
lovel=0
hivel=78
sample=Tenor Saxophone/Staccato/BrettTenor_Staccato_Main_C3_vl1_rr4.wav
pitch_keycenter=48
lokey=47.0
hikey=49.0
offset=195
tune=4
volume=4.834429

<region>
lovel=78
hivel=128
sample=Tenor Saxophone/Staccato/BrettTenor_Staccato_Main_C3_vl2_rr4.wav
pitch_keycenter=48
lokey=47.0
hikey=49.0
tune=8
volume=-0.259017

<region>
lovel=0
hivel=78
sample=Tenor Saxophone/Staccato/BrettTenor_Staccato_Main_D3_vl1_rr1.wav
pitch_keycenter=50
lokey=50.0
hikey=51.0
offset=166
tune=3
volume=5.242213

<region>
lovel=78
hivel=128
sample=Tenor Saxophone/Staccato/BrettTenor_Staccato_Main_D3_vl2_rr5.wav
pitch_keycenter=50
lokey=50.0
hikey=51.0
tune=8
volume=-1.027223

<region>
lovel=0
hivel=78
sample=Tenor Saxophone/Staccato/BrettTenor_Staccato_Main_E3_vl1_rr4.wav
pitch_keycenter=52
lokey=52.0
hikey=53.0
tune=1
volume=-2.376915

<region>
lovel=78
hivel=128
sample=Tenor Saxophone/Staccato/BrettTenor_Staccato_Main_E3_vl2_rr3.wav
pitch_keycenter=52
lokey=52.0
hikey=53.0
offset=136
tune=4
volume=-5.022824

<region>
lovel=0
hivel=78
sample=Tenor Saxophone/Staccato/BrettTenor_Staccato_Main_F#3_vl1_rr3.wav
pitch_keycenter=54
lokey=54.0
hikey=55.0
tune=4
volume=2.117540

<region>
lovel=78
hivel=128
sample=Tenor Saxophone/Staccato/BrettTenor_Staccato_Main_F#3_vl2_rr6.wav
pitch_keycenter=54
lokey=54.0
hikey=55.0
offset=398
tune=3
volume=-0.238364

<region>
lovel=0
hivel=78
sample=Tenor Saxophone/Staccato/BrettTenor_Staccato_Main_G#3_vl1_rr1.wav
pitch_keycenter=56
lokey=56.0
hikey=57.0
tune=1
volume=2.514504

<region>
lovel=78
hivel=128
sample=Tenor Saxophone/Staccato/BrettTenor_Staccato_Main_G#3_vl2_rr1.wav
pitch_keycenter=56
lokey=56.0
hikey=57.0
offset=451
volume=0.144105

<region>
lovel=0
hivel=78
sample=Tenor Saxophone/Staccato/BrettTenor_Staccato_Main_A#3_vl1_rr3.wav
pitch_keycenter=58
lokey=58.0
hikey=59.0
tune=-4
volume=1.093417

<region>
lovel=78
hivel=128
sample=Tenor Saxophone/Staccato/BrettTenor_Staccato_Main_A#3_vl2_rr4.wav
pitch_keycenter=58
lokey=58.0
hikey=59.0
offset=217
tune=-2
volume=-1.120860

<region>
lovel=0
hivel=78
sample=Tenor Saxophone/Staccato/BrettTenor_Staccato_Main_C4_vl1_rr7.wav
pitch_keycenter=60
lokey=60.0
hikey=61.0
volume=4.185497

<region>
lovel=78
hivel=128
sample=Tenor Saxophone/Staccato/BrettTenor_Staccato_Main_C4_vl2_rr3.wav
pitch_keycenter=60
lokey=60.0
hikey=61.0
offset=426
tune=-2
volume=-1.552265

<region>
lovel=0
hivel=78
sample=Tenor Saxophone/Staccato/BrettTenor_Staccato_Main_D4_vl1_rr4.wav
pitch_keycenter=62
lokey=62.0
hikey=63.0
tune=-7
volume=6.000000

<region>
lovel=78
hivel=128
sample=Tenor Saxophone/Staccato/BrettTenor_Staccato_Main_D4_vl2_rr2.wav
pitch_keycenter=62
lokey=62.0
hikey=63.0
offset=296
volume=2.726766

<region>
lovel=0
hivel=78
sample=Tenor Saxophone/Staccato/BrettTenor_Staccato_Main_E4_vl1_rr1.wav
pitch_keycenter=64
lokey=64.0
hikey=64.0
tune=3
volume=0.470390

<region>
lovel=78
hivel=128
sample=Tenor Saxophone/Staccato/BrettTenor_Staccato_Main_E4_vl2_rr4.wav
pitch_keycenter=64
lokey=64.0
hikey=64.0
offset=286
tune=3
volume=-4.909199

<region>
lovel=0
hivel=78
sample=Tenor Saxophone/Staccato/BrettTenor_Staccato_Main_F4_vl1_rr1.wav
pitch_keycenter=65
lokey=65.0
hikey=66.0
tune=8
volume=-1.097584

<region>
lovel=78
hivel=128
sample=Tenor Saxophone/Staccato/BrettTenor_Staccato_Main_F4_vl2_rr1.wav
pitch_keycenter=65
lokey=65.0
hikey=66.0
offset=204
tune=9
volume=-3.042588

<region>
sample=Tenor Saxophone/Staccato/BrettTenor_Staccato_Main_G#4_vl2_rr2.wav
pitch_keycenter=68
lokey=67.0
hikey=68.0
offset=109
tune=7
volume=1.094118

<region>
lovel=0
hivel=78
sample=Tenor Saxophone/Staccato/BrettTenor_Staccato_Main_A4_vl1_rr5.wav
pitch_keycenter=69
lokey=69.0
hikey=70.0
volume=4.414745

<region>
lovel=78
hivel=128
sample=Tenor Saxophone/Staccato/BrettTenor_Staccato_Main_A4_vl2_rr3.wav
pitch_keycenter=69
lokey=69.0
hikey=70.0
offset=108
tune=6
volume=3.595984

<region>
lovel=0
hivel=78
sample=Tenor Saxophone/Staccato/BrettTenor_Staccato_Main_C5_vl1_rr4.wav
pitch_keycenter=72
lokey=71.0
hikey=73.0
tune=2
volume=0.038694

<region>
lovel=78
hivel=128
sample=Tenor Saxophone/Staccato/BrettTenor_Staccato_Main_C5_vl2_rr1.wav
pitch_keycenter=72
lokey=71.0
hikey=73.0
offset=185
tune=1
volume=-2.415936

<region>
sample=Tenor Saxophone/Staccato/BrettTenor_Staccato_Main_D5_vl2_rr3.wav
pitch_keycenter=74
lokey=74.0
hikey=75.0
offset=30
tune=-1
volume=-2.652889

<region>
sample=Tenor Saxophone/Staccato/BrettTenor_Staccato_Main_E5_vl2_rr1.wav
pitch_keycenter=76
lokey=76.0
hikey=77.0
offset=7
tune=-2
volume=1.863302

